<?xml version="1.0" encoding="UTF-8"?>
<svg width="179px" height="226px" viewBox="0 0 179 226" version="1.1" xmlns="http://www.w3.org/2000/svg" xmlns:xlink="http://www.w3.org/1999/xlink">
    <!-- Generator: Sketch 63.1 (92452) - https://sketch.com -->
    <title>Lower Level Logo 1 CMYK</title>
    <desc>Created with Sketch.</desc>
    <g id="Page-1" stroke="none" stroke-width="1" fill="none" fill-rule="evenodd">
        <g id="Lower-Level-Logo-4-RGB" transform="translate(-399.000000, -327.000000)" fill="#999">
            <g id="Lower-Level-Logo-1-CMYK" transform="translate(322.000000, 327.000000)">
                <g id="Group-4" transform="translate(77.000000, 0.000000)">
                    <path d="M44.251,104.702 C44.406,108.078 44.066,111.519 41.225,114.672 C44.574,114.492 46.449,110.02 46.273,104.633 C46.097,99.247 43.936,94.955 40.586,95.096 C43.568,97.788 44.096,101.325 44.251,104.702" id="Fill-1"></path>
                    <path d="M150.949,68.7 C144.56,72.914 141.034,80.451 141.035,89.036 L141.039,152.641 L141.658,154.486 L105.903,154.489 L115.81,152.854 L115.807,96.889 C115.805,74.39 128.048,60.736 144.21,60.734 C149.69,60.734 154.719,62.308 158.974,65.262 C156.33,65.738 153.568,66.972 150.949,68.7 Z M71.142,183.161 L87.287,178.379 L148.103,178.375 L151.273,183.152 L151.274,183.155 L71.142,183.161 Z M147.145,118.261 L144.428,118.261 L145.013,114.029 C144.538,113.714 144.213,113.124 144.213,112.44 C144.213,111.427 144.917,110.605 145.786,110.605 C146.655,110.605 147.359,111.427 147.359,112.44 C147.359,113.124 147.035,113.713 146.559,114.029 L147.145,118.261 Z M101.651,164.055 L144.867,164.052 L144.867,164.053 L146.581,166.486 L90.311,166.49 L101.651,164.055 Z M33.371,194.852 C39.877,193.935 44.599,191.799 48.288,189.355 L24.19,217.689 L33.371,194.852 Z M40.6,92.03 C44.998,91.844 47.834,97.478 48.065,104.548 C48.296,111.619 45.835,117.489 41.439,117.725 C37.025,117.963 33.246,112.383 33.015,105.261 C32.782,98.139 36.186,92.216 40.6,92.03 Z M71.143,197.765 L152.282,197.742 L166.255,225.885 L178.471,225.884 L178.462,88.877 C178.457,29.561 138.58,0.817 89.39,0.82 C40.201,0.824 0.327,34.127 0.331,88.889 L0.341,225.896 L35.623,225.893 L51.724,212.778 L51.723,194.398 L56.71,179.354 L56.676,179.394 C56.152,180.012 49.186,187.939 35.094,190.469 L35.091,154.897 L38.015,154.897 C38.748,156.678 40.184,157.554 41.854,157.563 L43.016,157.435 C41.053,157.425 39.49,154.895 39.532,151.784 C39.573,148.755 41.121,146.316 43.015,146.221 L43.015,146.214 L42.043,146.082 C40.2,146.052 38.591,147.083 37.881,149.244 L35.091,149.244 L35.088,115.774 C36.985,119.116 39.733,121.059 42.842,120.511 C47.78,119.638 52.115,113.211 51.825,104.354 C51.536,95.497 47.533,89.687 42.257,89.281 C39.624,89.078 36.975,91.023 35.087,94.202 L35.086,80.509 C35.085,71.56 22.435,62.718 14.947,60.601 C8.466,58.77 11.013,58.365 12.589,58.529 C17.353,58.77 21.897,59.376 26.169,60.25 C28.766,60.973 31,63.463 32.177,64.232 C36.656,67.16 40.438,68.803 46.122,69.512 L37.514,64.551 C37.514,64.551 38.156,63.206 36.732,62.368 C36.533,62.25 36.301,62.137 36.055,62.026 C36.193,61.698 36.386,61.421 36.584,61.223 C36.584,61.223 38.572,61.878 41.278,63.214 C40.49,62.834 38.551,60.671 40.867,61.272 C41.622,61.557 42.509,61.954 43.243,62.461 L45.481,65.259 L45.476,65.257 C46.737,65.925 47.494,66.408 47.455,66.547 L47.183,67.83 C55.199,72.403 59.994,77.967 59.994,82.937 L59.997,124.67 L64.643,123.821 L59.998,133.897 L59.999,155.461 L64.645,152.864 L60,164.688 L60.004,225.892 L66.572,225.891 L66.561,71.799 C66.561,63.115 62.241,54.307 51.625,51.196 L31.684,45.266 C26.263,43.664 21.2,37.083 27.773,39.128 L53.422,47.479 C66.029,51.275 71.134,61.551 71.134,71.799 L71.143,197.765 L71.143,197.765 Z" id="Fill-3"></path>
                </g>
                <polyline id="Fill-5" points="132.105 215.273 119.609 225.893 128.725 225.892 128.725 221.956 132.105 215.273"></polyline>
                <path d="M120.435,148.061 L119.527,151.007 C119.267,151.051 119.059,151.393 119.054,151.817 C119.047,152.275 119.277,152.646 119.566,152.648002 C119.853,152.649 120.032,152.282 120.037,151.828 C120.04,151.642 120.012,151.471 119.959,151.332 L120.664,148.438 L120.435,148.061" id="Fill-6"></path>
            </g>
        </g>
    </g>
</svg>
