<?xml version="1.0" encoding="UTF-8"?>
<svg width="333px" height="283px" viewBox="0 0 333 283" version="1.1" xmlns="http://www.w3.org/2000/svg" xmlns:xlink="http://www.w3.org/1999/xlink">
    <!-- Generator: Sketch 63.1 (92452) - https://sketch.com -->
    <title>Lower Level Logo 1 CMYK</title>
    <desc>Created with Sketch.</desc>
    <defs>
        <polygon id="path-1" points="0.06 0.34 122.552864 0.34 122.552864 134.605 0.06 134.605"></polygon>
    </defs>
    <g id="Page-1" stroke="none" stroke-width="1" fill="none" fill-rule="evenodd">
        <g id="Lower-Level-Logo-4-RGB" transform="translate(-322.000000, -327.000000)">
            <g id="Lower-Level-Logo-1-CMYK" transform="translate(322.000000, 327.000000)">
                <g id="Group-4" transform="translate(77.000000, 0.000000)" fill="#21221C">
                    <path d="M44.251,104.702 C44.406,108.078 44.066,111.519 41.225,114.672 C44.574,114.492 46.449,110.02 46.273,104.633 C46.097,99.247 43.936,94.955 40.586,95.096 C43.568,97.788 44.096,101.325 44.251,104.702" id="Fill-1"></path>
                    <path d="M150.949,68.7 C144.56,72.914 141.034,80.451 141.035,89.036 L141.039,152.641 L141.658,154.486 L105.903,154.489 L115.81,152.854 L115.807,96.889 C115.805,74.39 128.048,60.736 144.21,60.734 C149.69,60.734 154.719,62.308 158.974,65.262 C156.33,65.738 153.568,66.972 150.949,68.7 Z M71.142,183.161 L87.287,178.379 L148.103,178.375 L151.273,183.152 L151.274,183.155 L71.142,183.161 Z M147.145,118.261 L144.428,118.261 L145.013,114.029 C144.538,113.714 144.213,113.124 144.213,112.44 C144.213,111.427 144.917,110.605 145.786,110.605 C146.655,110.605 147.359,111.427 147.359,112.44 C147.359,113.124 147.035,113.713 146.559,114.029 L147.145,118.261 Z M101.651,164.055 L144.867,164.052 L144.867,164.053 L146.581,166.486 L90.311,166.49 L101.651,164.055 Z M33.371,194.852 C39.877,193.935 44.599,191.799 48.288,189.355 L24.19,217.689 L33.371,194.852 Z M40.6,92.03 C44.998,91.844 47.834,97.478 48.065,104.548 C48.296,111.619 45.835,117.489 41.439,117.725 C37.025,117.963 33.246,112.383 33.015,105.261 C32.782,98.139 36.186,92.216 40.6,92.03 Z M71.143,197.765 L152.282,197.742 L166.255,225.885 L178.471,225.884 L178.462,88.877 C178.457,29.561 138.58,0.817 89.39,0.82 C40.201,0.824 0.327,34.127 0.331,88.889 L0.341,225.896 L35.623,225.893 L51.724,212.778 L51.723,194.398 L56.71,179.354 L56.676,179.394 C56.152,180.012 49.186,187.939 35.094,190.469 L35.091,154.897 L38.015,154.897 C38.748,156.678 40.184,157.554 41.854,157.563 L43.016,157.435 C41.053,157.425 39.49,154.895 39.532,151.784 C39.573,148.755 41.121,146.316 43.015,146.221 L43.015,146.214 L42.043,146.082 C40.2,146.052 38.591,147.083 37.881,149.244 L35.091,149.244 L35.088,115.774 C36.985,119.116 39.733,121.059 42.842,120.511 C47.78,119.638 52.115,113.211 51.825,104.354 C51.536,95.497 47.533,89.687 42.257,89.281 C39.624,89.078 36.975,91.023 35.087,94.202 L35.086,80.509 C35.085,71.56 22.435,62.718 14.947,60.601 C8.466,58.77 11.013,58.365 12.589,58.529 C17.353,58.77 21.897,59.376 26.169,60.25 C28.766,60.973 31,63.463 32.177,64.232 C36.656,67.16 40.438,68.803 46.122,69.512 L37.514,64.551 C37.514,64.551 38.156,63.206 36.732,62.368 C36.533,62.25 36.301,62.137 36.055,62.026 C36.193,61.698 36.386,61.421 36.584,61.223 C36.584,61.223 38.572,61.878 41.278,63.214 C40.49,62.834 38.551,60.671 40.867,61.272 C41.622,61.557 42.509,61.954 43.243,62.461 L45.481,65.259 L45.476,65.257 C46.737,65.925 47.494,66.408 47.455,66.547 L47.183,67.83 C55.199,72.403 59.994,77.967 59.994,82.937 L59.997,124.67 L64.643,123.821 L59.998,133.897 L59.999,155.461 L64.645,152.864 L60,164.688 L60.004,225.892 L66.572,225.891 L66.561,71.799 C66.561,63.115 62.241,54.307 51.625,51.196 L31.684,45.266 C26.263,43.664 21.2,37.083 27.773,39.128 L53.422,47.479 C66.029,51.275 71.134,61.551 71.134,71.799 L71.143,197.765 L71.143,197.765 Z" id="Fill-3"></path>
                </g>
                <polyline id="Fill-5" fill="#21221C" points="132.105 215.273 119.609 225.893 128.725 225.892 128.725 221.956 132.105 215.273"></polyline>
                <path d="M120.435,148.061 L119.527,151.007 C119.267,151.051 119.059,151.393 119.054,151.817 C119.047,152.275 119.277,152.646 119.566,152.648002 C119.853,152.649 120.032,152.282 120.037,151.828 C120.04,151.642 120.012,151.471 119.959,151.332 L120.664,148.438 L120.435,148.061" id="Fill-6" fill="#21221C"></path>
                <g id="Group-10" transform="translate(0.000000, 147.000000)">
                    <mask id="mask-2" fill="white">
                        <use xlink:href="#path-1"></use>
                    </mask>
                    <g id="Clip-8"></g>
                    <path d="M122.552,4.853 C122.585,2.386 121.671,0.366 120.109,0.34 C120.934,0.96 121.475,2.819 121.475,4.823 C121.475,6.827 120.828,8.695 119.989,9.30602399 C121.551,9.314 122.519,7.32 122.552,4.853" id="Fill-7" fill="#21221C" mask="url(#mask-2)"></path>
                    <path d="M20.536,134.605 C19.244,134.605 17.903,134.564 16.612,134.564 C14.452,134.549 13.436,134.542 11.544,134.542 C9.393,134.542 7.242,134.595 5.09,134.595 C3.89,134.595 0.375,134.583 0.752,134.583 C0.223,134.583 0,134.482 0,134.28 C0,134.081 0.216,133.783 0.569,133.386 C1.581,132.242 2.306,130.932 2.478,129.209 C2.654,127.47 2.689,125.98 2.714,124.136 C2.737,122.43 2.814,120.846 2.814,119.196 C2.814,117.169 2.683,115.034 2.743,112.691 C2.765,111.819 2.773,111.1 2.773,110.472 C2.773,108.895 2.723,107.894 2.723,106.471 C2.723,104.224 2.687,101.864 2.628,99.65 C2.577,97.75 1.437,95.831 0.202,94.512 C0.02,94.32 0.032,94.132 0.39,94.051 C0.598,94.003 0.877,93.993 1.107,93.993 C2.297,93.993 3.575,94.011 4.853,94.028 C5.224,94.034 5.595,94.034 5.966,94.034 L6.051,94.034 C7.234,94.034 8.418,93.992 9.607,93.992 C10.468,93.992 11.011,94.019 11.79,94.019 C12.6,94.019 12.93,94.113 12.93,94.347 C12.93,94.536 12.714,94.816 12.362,95.214 C11.847,95.795 11.409,96.419 11.078,97.118 C10.372,98.611 10.584,99.672 10.5,101.509 C10.461,102.355 10.447,103.203 10.447,104.052 C10.447,106.245 10.54,108.442 10.54,110.633 C10.54,111.225 10.564,116.928 10.564,117.195 C10.564,118.501 10.499,119.807 10.499,121.112 C10.499,122.706 10.506,123.725 10.52,125.692 L10.52,127.985 C10.52,128.268 10.729,128.515 11.012,128.515 C11.688,128.52 12.363,128.524 13.044,128.524 C13.706,128.524 14.374,128.521 15.056,128.511 C16.899,128.487 18.39,128.452 20.128,128.277 C21.853,128.103 23.16,127.379 24.305,126.367 C24.702,126.013 25,125.798 25.199,125.798 C25.401,125.798 25.501,126.021 25.501,126.55 C25.501,127.766 25.543,128.347 25.52,129.819 C25.507,130.635 25.497,131.45 25.498,132.264 C25.497,132.3 25.497,132.335 25.497,132.37 C25.502,132.909 25.54,133.46 25.506,133.997 C25.494,134.193 25.436,134.397 25.24,134.484 C25.06,134.563 24.805,134.586 24.614,134.587 C23.226,134.597 21.934,134.6 20.538,134.6 L20.536,134.605" id="Fill-9" fill="#21221C" mask="url(#mask-2)"></path>
                </g>
                <path d="M42.134,276.465 C43.957,276.465 45.268,274.653 45.951,273.1 C47.07,270.559 47.44,267.836 47.7,265.126 C47.839,263.689 47.915,262.22 47.915,260.736 C47.915,258.172 47.688,255.565 47.162,253.015 C46.713,250.831 46.034,248.031 44.26,246.57 C43.628,246.051 42.881,245.793 42.139,245.793 C41.056,245.793 39.985,246.343 39.301,247.422 C38.354,248.875 37.71,250.665 37.34,252.345 C36.674,255.372 36.284,258.09 36.284,261.126 C36.284,265.683 36.675,270.54 39.053,274.385 C39.776,275.511 40.744,276.464 42.134,276.464 L42.134,276.465 Z M41.982,282.157 C39.348,282.157 36.656,281.225 34.444,279.31 C31.315,276.598 29.776,273.522 28.903,270.119 C28.158,267.056 27.785,263.897 27.785,260.752 C27.785,258.98 27.903,257.212 28.139,255.468 C28.402,253.529 29.083,251.366 29.938,249.393 C30.684,247.673 31.535,246.111 32.69,244.78 C35.146,241.879 38.589,240.327 42.25,240.327 C43.285,240.327 44.338,240.451 45.391,240.704 C50.707,241.98 53.367,246.643 54.676,250.099 C55.664,252.678 56.129,255.583 56.348,258.372 C56.439,259.527 56.487,260.664 56.487,261.791 C56.487,263.416 56.388,265.02 56.172,266.636 C55.882,268.818 55.291,271.072 54.345,273.146 C53.325,275.646 51.684,278.239 49.022,280.012 C46.856,281.455 44.391,282.156 41.982,282.156 L41.982,282.157 L41.982,282.157 Z" id="Fill-11" fill="#21221C"></path>
                <path d="M67.348,281.602097 C66.991,281.608 66.668,281.335 66.586,280.929 C66.086,278.457 65.437,275.247 65.41,275.077 C64.939,272.158 64.244,269.22 63.661,266.205 C63.547,265.61 62.505,259.803 62.451,259.525 C62.166,258.049 61.836,256.514 61.535,255.012 C61.228,253.468 61.077,252.299 60.674,250.271 C60.318,248.43 60.05,247.336 59.873,246.503 C59.663,245.508 59.498,244.979 59.187,244.316 C58.606,243.081 57.866,242.406 57.205,241.529 C57.059,241.337 57.069,241.148 57.356,241.068 C57.523,241.02 57.745,241.011 57.93,241.011 C58.697,241.011 59.464,241.011 60.231,241.011 C61.355,241.011 62.483,241.023 63.612,241.023 C64.234,241.023 64.856,241.019 65.479,241.009 C66.071,241.001 66.81,241.01 67.401,241.01 C68.034,241.008 68.675,241.011 69.249,241.016 C69.294,241.016 69.422,241.01 69.576,241.01 C69.761,241.01 69.984,241.019 70.149,241.066 C70.436,241.147 70.443,241.336 70.293,241.528 C69.68,242.324 68.974,243.114 68.609,244.18 C68.424,244.721 68.35,245.243 68.35,245.809 C68.35,246.661 68.515,247.615 68.711,248.898 C68.978,250.643 69.173,252.185 69.413,253.718 C69.627,255.083 69.932,256.414 70.195,258.122 C70.646,261.058 71.12,264.269 71.16,264.52 C71.368,265.839 71.564,267.074 71.776,268.368 C71.851,268.823 71.923,269.278 71.996,269.732 C72.086,270.291 72.161,270.63 72.236,270.63 C72.303,270.63 72.37,270.36 72.449,269.736 C72.498,269.341 72.549,268.945 72.6,268.55 C72.766,267.256 72.922,265.745 73.107,264.433 C73.353,262.684 73.644,260.373 73.922,258.175 C74.099,256.774 74.324,255.522 74.492,254.021 C74.681,252.342 74.929,250.537 75.149,248.857 C75.668,244.909 75.653,244.508 76.013,241.724 C76.065,241.323 76.418,241.026 76.832,241.028 C77.334,241.031 77.922,241.035 77.988,241.035 C79.148,241.041 80.307,240.984 81.474,241.01 C81.792,241.016 81.828,241.018 81.975,241.018 C82.692,241.018 83.171,241.05 83.343,241.266 C83.505,241.47 83.589,241.791 83.62,242.037 C83.707,242.713 83.846,243.419 83.941,244.241 C84.196,246.447 84.281,246.996 84.483,248.796 C84.56,249.484 84.769,250.662 84.875,251.455 C85.192,253.838 85.554,255.972 85.809,258.361 C86.123,261.298 86.557,264.269 86.585,264.521 C86.731,265.84 86.869,267.074 87.021,268.369 C87.079,268.868 87.129,269.369 87.193,269.868 C87.264,270.429 87.347,270.691 87.436,270.691 C87.574,270.691 87.727,270.067 87.878,268.966 C88.056,267.673 88.326,266.304 88.632,264.333 C88.903,262.585 89.189,260.374 89.485,258.177 C89.675,256.775 89.908,255.524 90.089,254.022 C90.292,252.343 90.524,250.59 90.699,248.901 C90.81,247.829 90.99,246.951 90.99,246.085 C90.99,245.462 90.897,244.845 90.619,244.163 C90.191,243.113 89.465,242.322 88.818,241.533 C88.66,241.34 88.657,241.152 88.94,241.071 C89.24,240.985 89.738,241.021 89.837,241.02 C90.46,241.013 92.219,241.026 92.888,241.03 C94.452,241.038 96.017,240.996 97.582,241.013 C97.627,241.013 97.754,241.006 97.908,241.006 C98.092,241.006 98.316,241.016 98.485,241.063 C98.776,241.144 98.795,241.333 98.658,241.525 C98.113,242.299 97.453,242.981 96.909,243.978 C96.125,245.413 96.114,246.168 95.422,250.334 C95.074,252.361 94.894,253.463 94.628,255.008 C94.368,256.51 94.187,258.006 93.942,259.482 C93.896,259.761 93.412,262.965 92.805,266.2 C92.193,269.457 91.806,272.002 91.297,275.072 C91.245,275.386 90.834,278.478 90.501,280.929 C90.448,281.321 90.166,281.604 89.824,281.598 C89.774,281.597 89.722,281.596 89.669,281.595 C89.225,281.587 88.783,281.592 88.339,281.582 C87.871,281.572 87.402,281.564 86.934,281.56 C85.263,281.546 84.124,281.608 81.922,281.601 C81.565,281.6 81.261,281.335 81.206,280.928 C80.874,278.456 80.443,275.245 80.427,275.076 C80.153,272.157 79.658,269.219 79.279,266.204 C79.263,266.069 79.247,265.934 79.231,265.8 C79.169,265.255 79.108,264.71 79.046,264.164 C78.966,263.462 78.887,262.76 78.808,262.056 L78.604,260.25 C78.583,260.066 78.563,259.883 78.542,259.7 C78.522,259.543 78.45,259.394 78.369,259.394 C78.291,259.394 78.206,259.537 78.158,259.953 C78.136,260.152 78.112,260.35 78.089,260.55 C78.032,261.035 77.974,261.521 77.914,262.007 C77.768,263.193 77.613,264.378 77.445,265.561 C77.284,266.691 77.156,267.826 77.041,268.96 C76.638,272.939 76.09,276.901 75.719,280.883 C75.68,281.301 75.409,281.602097 75.066,281.597 C74.571,281.589 74.077,281.592 73.581,281.58 C72.491,281.554 71.401,281.588 70.312,281.588 C69.324,281.588 68.337,281.581 67.348,281.6 L67.348,281.602097" id="Fill-12" fill="#21221C"></path>
                <path d="M110.34,281.624 C110.197,281.624 108.494,281.617 106.851,281.611 C106.649,281.613 106.446,281.614 106.244,281.618 C104.943,281.638 104.338,281.596 103.375,281.596 C102.556,281.596 102.222,281.504 102.222,281.269 C102.222,281.081 102.438,280.801 102.791,280.402 C103.803,279.259 104.528,277.95 104.701,276.226 C104.875,274.488 104.911,272.997 104.936,271.154 C104.945,270.475 104.949,269.81 104.949,269.151 C104.949,267.27 104.921,265.436 104.921,263.483 C104.921,262.284 104.931,261.039 104.965,259.71 C104.987,258.839 104.994,258.12 104.994,257.494 C104.994,255.913 104.945,254.91 104.945,253.481 C104.945,251.243 104.909,248.883 104.849,246.67 C104.798,244.769 103.659,242.85 102.425,241.533 C102.242,241.34 102.254,241.151 102.612,241.07 C102.819,241.022 103.097,241.012 103.327,241.012 C104.52,241.012 105.798,241.031 107.076,241.048 C107.468,241.053 107.86,241.054 108.254,241.054 C109.279,241.054 110.078,241.021 111.123,241.021 C113.63,241.021 116.273,241.081 118.715,241.081 C121.001,241.081 123.312,241.031 125.614,241.029 C125.95,241.028 126.286,241.045 126.623,241.045 C126.66,241.045 126.699,241.044 126.737,241.044 C126.902,241.044 127.07,241.061 127.135,241.251 C127.168,241.347 127.169,241.604 127.169,241.779 C127.169,242.62 127.146,243.458 127.146,244.296 C127.146,245.568 127.189,246.857 127.178,248.07 C127.178,248.125 127.185,248.277 127.185,248.462 C127.185,248.682 127.175,248.951 127.13,249.149 C127.051,249.495 126.87,249.51 126.685,249.335 C125.411,248.16 123.545,247.077 121.682,247.043 C120.128,247.014 118.49,246.995 116.866,246.995 C116.231,246.995 115.598,246.999 114.973,247.005 C114.36,247.011 113.825,247.008 113.294,247.002 C113.014,246.999 112.758,247.195 112.753,247.475 C112.746,247.827 112.737,248.178 112.724,248.529 C112.696,249.338 112.685,250.147 112.685,250.957 C112.685,253.189 112.765,255.425 112.765,257.654 C112.765,257.928 112.975,258.162 113.249,258.162 C113.673,258.161 114.138,258.158 114.702,258.154 C115.743,258.154 116.784,258.154 117.824,258.155 C118.903,258.155 119.982,258.16 121.061,258.167 C121.213,258.168 121.382,258.152 121.524,258.209 C121.719,258.286 121.732,258.493 121.739,258.648 C121.754,258.969 121.737,259.294 121.73,259.614 C121.714,260.265 121.702,260.918 121.713,261.571 C121.72,262.016 121.732,262.462 121.737,262.908 C121.739,263.021 121.74,263.135 121.74,263.248 C121.74,263.31 121.754,263.395 121.754,263.471 C121.754,263.716 121.555,263.731 121.382,263.731 C121.09,263.731 120.8,263.742 120.509,263.742 C118.943,263.74 117.393,263.822 115.829,263.773 C114.989,263.746 114.15,263.74 113.31,263.742 C113.026,263.742 112.789,263.967 112.789,264.252 C112.788,265.546 112.723,266.841 112.723,268.133 C112.723,269.728 112.731,270.748 112.744,272.714 C112.744,273.478 112.744,274.242 112.744,275.007 C112.744,275.29 112.953,275.538 113.237,275.538 C114.782,275.548 116.375,275.577 117.974,275.577 C119.582,275.577 120.816,275.453 122.353,275.299 C124.077,275.125 125.386,274.4 126.53,273.387 C126.927,273.035 127.225,272.819 127.424,272.819 C127.627,272.819 127.726,273.042 127.726,273.571 C127.726,274.856 127.717,275.468 127.717,277.131 C127.717,277.85 127.761,278.556 127.767,279.286 C127.768,279.405 127.769,279.524 127.769,279.642 C127.769,280.103 127.76,280.563 127.731,281.019 C127.719,281.216 127.661,281.42 127.465,281.507 C127.286,281.586 127.031,281.608 126.839,281.609 C125.451,281.62 124.159,281.623 122.765,281.623 C121.472,281.623 120.13,281.582 118.839,281.582 C116.873,281.568 115.854,281.561 114.256,281.561 C113.594,281.561 112.932,281.578 112.269,281.595 C112.241,281.597 112.213,281.603 112.184,281.604 C111.909,281.622 111.63,281.621 111.351,281.614 C111.015,281.621 110.68,281.626 110.344,281.626 L110.34,281.624" id="Fill-13" fill="#21221C"></path>
                <path d="M142.22,259.855 C142.394,259.85 142.576,259.845 142.76,259.845 C143.449,259.845 144.533,259.856 144.883,259.84 C147.707,259.707 148.436,259.547 149.711,258.036 C150.355,257.274 150.521,256.204 150.589,255.273 C150.644,254.519 150.686,253.761 150.686,253.005 C150.686,251.955 150.605,250.908 150.364,249.877 C150.183,249.104 149.766,248.32 149.17,247.761 C147.911,246.581 145.811,246.541 144.302,246.541 C143.715,246.541 143.095,246.561 142.526,246.595 C142.271,246.611 142.057,246.65 141.876,246.801 C141.75,246.904 141.736,247.136 141.736,247.323 C141.736,247.718 141.738,248.1 141.738,248.32 C141.738,248.975 141.741,249.613 141.741,250.25 C141.741,251.008 141.737,251.763 141.723,252.543 C141.709,253.263 141.702,254.412 141.702,255.632 C141.702,256.933 141.709,258.315 141.726,259.343 C141.73,259.622 141.941,259.863 142.22,259.854 L142.22,259.855 Z M152.288,281.602 C151.239,281.602 150.19,281.595 149.143,281.587 C149.085,281.587 148.926,281.594 148.734,281.594 C148.502,281.594 148.222,281.583 148.012,281.536 C147.65,281.454 147.639,281.266 147.823,281.074 C148.577,280.279 149.45,279.489 149.889,278.423 C149.994,278.167 150.037,277.912 150.037,277.654 C150.037,276.934 149.698,276.203 149.427,275.413 C148.975,274.095 148.628,272.951 148.248,271.958 C147.607,270.275 146.948,268.877 146.046,266.722 C145.995,266.603 145.884,266.255 145.685,265.802 C145.555,265.507 145.281,265.418 144.958,265.414 C144.418,265.408 143.921,265.428 143.533,265.428 C143.407,265.428 142.418,265.454 142.303,265.454 C142.014,265.454 141.777,265.632 141.777,265.921 C141.763,267.382 141.737,268.151 141.739,268.394 C141.749,269.823 141.746,270.834 141.759,272.677 C141.786,276.094 141.705,276.495 142.123,277.714 C142.559,278.983 143.36,280.17 144.208,281.074 C144.39,281.266 144.379,281.454 144.02,281.536 C143.813,281.583 143.536,281.593 143.307,281.593 C141.366,281.593 139.435,281.545 137.497,281.545 C135.897,281.545 134.248,281.6 132.715,281.586 C132.659,281.586 132.5,281.593 132.309,281.593 C132.079,281.593 131.801,281.583 131.595,281.536 C131.236,281.454 131.224,281.266 131.407,281.073 C132.641,279.756 133.78,277.838 133.832,275.937 C133.887,273.882 133.928,271.697 133.928,269.607 C133.928,267.966 133.98,266.939 133.98,265.287 C133.98,264.621 133.972,263.851 133.948,262.899 C133.89,260.616 133.985,258.712 133.985,256.696 C133.985,254.97 133.943,253.215 133.919,251.457 C133.894,249.614 133.859,248.124 133.684,246.385 C133.51,244.661 132.786,243.353 131.774,242.211 C131.421,241.813 131.205,241.515 131.205,241.316 C131.205,241.114 131.428,241.013 131.957,241.013 C132.91,241.013 133.473,240.988 134.378,240.988 C135.602,240.988 136.815,241.028 138.03,241.028 C141.152,241.028 138.451,240.989 145.558,240.989 C146.583,240.989 147.642,241.097 148.659,241.215 C151.378,241.53 154.252,242.696 156.09,244.797 C157.728,246.669 158.38,249.002 158.442,251.349 C158.529,254.641 158.311,256.798 157.408,259.299 C156.841,260.867 155.685,262.09 154.297,262.935 C154.052,263.084 153.801,263.222 153.546,263.352 C153.207,263.526 153.198,263.881 153.325,264.19 C153.899,265.598 154.469,267.109 155.066,268.539 C155.679,270.011 156.172,271.007 156.975,272.938 C158.813,277.44 159.056,278.39 160.723,280.017 C161.084,280.371 161.281,280.605 161.629,280.973 C161.814,281.166 161.896,281.491 161.61,281.533 C161.29,281.582 160.816,281.585 160.587,281.585 C157.816,281.585 155.05,281.6 152.292,281.6 L152.288,281.602 L152.288,281.602 Z" id="Fill-14" fill="#21221C"></path>
                <path d="M202.524,281.539 C201.231,281.539 199.89,281.498 198.599,281.498 C196.44,281.482 195.424,281.475 193.531,281.475 C191.381,281.475 189.229,281.53 187.077,281.53 C185.878,281.53 182.363,281.516 182.739,281.516 C182.211,281.516 181.988,281.417 181.988,281.214 C181.988,281.015 182.203,280.718 182.557,280.319 C183.568,279.176 184.293,277.867 184.466,276.142 C184.641,274.404 184.677,272.914 184.702,271.069 C184.725,269.364 184.802,267.78 184.802,266.13 C184.802,264.102 184.672,261.968 184.73,259.626 C184.753,258.753 184.761,258.034 184.761,257.406 C184.761,255.83 184.711,254.829 184.711,253.405 C184.711,251.159 184.675,248.798 184.616,246.584 C184.564,244.683 183.426,242.764 182.19,241.447 C182.008,241.254 182.019,241.065 182.379,240.984 C182.586,240.936 182.864,240.927 183.095,240.927 C184.285,240.927 185.563,240.945 186.841,240.962 C187.212,240.968 187.583,240.968 187.954,240.968 L188.039,240.968 C189.222,240.968 190.405,240.926 191.595,240.926 C192.455,240.926 192.998,240.954 193.777,240.954 C194.587,240.954 194.918,241.047 194.918,241.281 C194.918,241.47 194.702,241.751 194.349,242.147 C193.835,242.728 193.396,243.352 193.066,244.052 C192.36,245.545 192.572,246.605 192.488,248.442 C192.449,249.289 192.434,250.136 192.434,250.986 C192.434,253.178 192.528,255.376 192.528,257.566 C192.528,258.159 192.552,263.863 192.552,264.129 C192.552,265.434 192.486,266.741 192.486,268.046 C192.486,269.639 192.494,270.659 192.508,272.626 L192.508,274.919 C192.508,275.202 192.717,275.45 193,275.45 C193.676,275.454 194.35,275.458 195.032,275.458 C195.694,275.458 196.362,275.455 197.044,275.446 C198.887,275.421 200.378,275.386 202.116,275.211 C203.841,275.037 205.148,274.313 206.292,273.301 C206.69,272.947 206.988,272.731 207.186,272.731 C207.39,272.731 207.489,272.955 207.489,273.483 C207.489,274.7 207.531,275.281 207.508,276.753 C207.495,277.568 207.485,278.384 207.486,279.198 C207.485,279.233 207.485,279.268 207.485,279.304 C207.49,279.843 207.528,280.393 207.494,280.93 C207.481,281.127 207.424,281.331 207.227,281.418 C207.048,281.497 206.794,281.52 206.601,281.521 C205.214,281.531 203.922,281.534 202.525,281.534 L202.524,281.539" id="Fill-15" fill="#21221C"></path>
                <path d="M220.295,281.557 C220.152,281.557 218.449,281.551 216.807,281.545 C216.603,281.547 216.401,281.549 216.198,281.552 C214.898,281.572 214.293,281.53 213.33,281.53 C212.511,281.53 212.177,281.437 212.177,281.203 C212.177,281.014 212.393,280.734 212.746,280.336 C213.758,279.192 214.482,277.884 214.655,276.16 C214.83,274.422 214.866,272.93 214.89,271.088 C214.9,270.409 214.903,269.744 214.903,269.085 C214.903,267.204 214.876,265.37 214.876,263.418 C214.876,262.218 214.887,260.972 214.92,259.644 C214.942,258.772 214.949,258.053 214.949,257.428 C214.949,255.846 214.899,254.845 214.899,253.416 C214.899,251.177 214.863,248.817 214.805,246.604 C214.753,244.703 213.613,242.784 212.379,241.467 C212.197,241.273 212.209,241.086 212.567,241.004 C212.774,240.957 213.052,240.946 213.282,240.946 C214.474,240.946 215.753,240.965 217.031,240.982 C217.423,240.988 217.815,240.988 218.209,240.988 C219.233,240.988 220.032,240.955 221.078,240.955 C223.585,240.955 226.227,241.014 228.67,241.014 C230.956,241.014 233.267,240.965 235.568,240.963 C235.904,240.962 236.241,240.978 236.578,240.978 C236.615,240.978 236.653,240.977 236.691,240.977 C236.857,240.977 237.025,240.995 237.09,241.184 C237.122,241.281 237.124,241.538 237.124,241.714 C237.124,242.554 237.101,243.391 237.101,244.229 C237.101,245.502 237.143,246.791 237.133,248.005 C237.133,248.058 237.14,248.211 237.14,248.396 C237.14,248.617 237.13,248.885 237.085,249.084 C237.006,249.428 236.825,249.443 236.64,249.269 C235.366,248.094 233.5,247.011 231.637,246.976 C230.083,246.948 228.445,246.928 226.821,246.928 C226.185,246.928 225.553,246.932 224.928,246.938 C224.314,246.944 223.78,246.941 223.249,246.935 C222.969,246.932 222.713,247.129 222.708,247.409 C222.7,247.761 222.691,248.111 222.679,248.463 C222.65,249.271 222.64,250.081 222.64,250.89 C222.64,253.123 222.72,255.358 222.72,257.588 C222.72,257.862 222.93,258.096 223.204,258.096 C223.628,258.095 224.093,258.092 224.656,258.088 C225.697,258.088 226.739,258.088 227.779,258.089 C228.858,258.089 229.937,258.094 231.015,258.1 C231.167,258.101 231.337,258.086 231.478,258.142 C231.674,258.22 231.686,258.427 231.694,258.583 C231.709,258.903 231.691,259.227 231.685,259.548 C231.669,260.2 231.657,260.851 231.668,261.505 C231.675,261.95 231.686,262.395 231.692,262.842 C231.693,262.955 231.694,263.069 231.695,263.182 C231.695,263.244 231.709,263.329 231.709,263.405 C231.709,263.649 231.51,263.665 231.337,263.665 C231.045,263.665 230.755,263.676 230.464,263.676 C228.898,263.675 227.348,263.756 225.784,263.707 C224.944,263.679 224.104,263.675 223.265,263.676 C222.98,263.676 222.744,263.9 222.744,264.185 C222.743,265.479 222.679,266.774 222.679,268.066 C222.679,269.662 222.685,270.681 222.7,272.647 C222.7,273.412 222.7,274.176 222.7,274.941 C222.7,275.223 222.908,275.471 223.191,275.471 C224.737,275.481 226.33,275.511 227.93,275.511 C229.537,275.511 230.77,275.386 232.308,275.232 C234.032,275.058 235.341,274.334 236.484,273.321 C236.883,272.969 237.181,272.753 237.379,272.753 C237.582,272.753 237.682,272.975 237.682,273.505 C237.682,274.791 237.673,275.402 237.673,277.064 C237.673,277.784 237.716,278.49 237.722,279.22 C237.723,279.339 237.723,279.458 237.723,279.576 C237.723,280.037 237.715,280.497 237.686,280.953 C237.674,281.149 237.616,281.353 237.42,281.44 C237.24,281.52 236.986,281.542 236.794,281.543 C235.406,281.553 234.113,281.556 232.72,281.556 C231.427,281.556 230.084,281.515 228.794,281.515 C226.828,281.502 225.808,281.495 224.211,281.495 C223.549,281.495 222.887,281.511 222.223,281.528 C222.195,281.531 222.168,281.537 222.14,281.538 C221.864,281.555 221.586,281.554 221.307,281.549 C220.971,281.555 220.635,281.559 220.299,281.559 L220.295,281.557" id="Fill-16" fill="#21221C"></path>
                <path d="M327.811,281.539 C326.519,281.539 325.178,281.498 323.887,281.498 C321.727,281.482 320.711,281.475 318.819,281.475 C316.669,281.475 314.516,281.53 312.365,281.53 C311.165,281.53 307.65,281.516 308.027,281.516 C307.498,281.516 307.275,281.417 307.275,281.214 C307.275,281.015 307.491,280.718 307.845,280.319 C308.856,279.176 309.581,277.867 309.754,276.142 C309.929,274.404 309.965,272.914 309.989,271.069 C310.013,269.364 310.09,267.78 310.09,266.13 C310.09,264.102 309.959,261.968 310.017,259.626 C310.04,258.753 310.049,258.034 310.049,257.406 C310.049,255.83 309.999,254.829 309.999,253.405 C309.999,251.159 309.962,248.798 309.903,246.584 C309.851,244.683 308.713,242.764 307.477,241.447 C307.296,241.254 307.307,241.065 307.666,240.984 C307.873,240.936 308.151,240.927 308.382,240.927 C309.572,240.927 310.85,240.945 312.128,240.962 C312.499,240.968 312.871,240.968 313.241,240.968 L313.326,240.968 C314.51,240.968 315.693,240.926 316.883,240.926 C317.743,240.926 318.286,240.954 319.065,240.954 C319.875,240.954 320.205,241.047 320.205,241.281 C320.205,241.47 319.989,241.751 319.637,242.147 C319.122,242.728 318.683,243.352 318.353,244.052 C317.647,245.545 317.859,246.605 317.775,248.442 C317.736,249.289 317.722,250.136 317.722,250.986 C317.722,253.178 317.815,255.376 317.815,257.566 C317.815,258.159 317.84,263.863 317.84,264.129 C317.84,265.434 317.774,266.741 317.774,268.046 C317.774,269.639 317.781,270.659 317.796,272.626 L317.796,274.919 C317.796,275.202 318.004,275.45 318.287,275.45 C318.964,275.454 319.639,275.458 320.319,275.458 C320.981,275.458 321.649,275.455 322.332,275.446 C324.175,275.421 325.666,275.386 327.403,275.211 C329.128,275.037 330.435,274.313 331.58,273.301 C331.977,272.947 332.275,272.731 332.474,272.731 C332.677,272.731 332.776,272.955 332.776,273.483 C332.776,274.7 332.818,275.281 332.796,276.753 C332.782,277.568 332.773,278.384 332.773,279.198 C332.773,279.233 332.772,279.268 332.773,279.304 C332.777,279.843 332.815,280.393 332.781,280.93 C332.769,281.127 332.711,281.331 332.515,281.418 C332.335,281.497 332.08,281.52 331.889,281.521 C330.501,281.531 329.209,281.534 327.813,281.534 L327.811,281.539" id="Fill-20" fill="#21221C"></path>
                <path d="M259.699,281.536 C259.121,281.528 258.543,281.53 257.965,281.52 C257.49,281.511 257.016,281.504 256.543,281.504 C255.537,281.504 254.531,281.534 253.526,281.534 C253.108,281.54 252.732,281.266 252.636,280.86 C252.052,278.387 251.294,275.176 251.262,275.006 C250.71,272.086 249.898,269.147 249.217,266.131 C249.083,265.536 247.866,259.728 247.803,259.449 C247.469,257.971 247.082,256.437 246.731,254.935 C246.372,253.389 246.127,252.288 245.655,250.26 C244.743,246.222 244.656,245.455 243.986,244.237 C243.307,243 242.442,242.325 241.669,241.448 C241.497,241.256 241.509,241.067 241.846,240.986 C242.04,240.938 242.301,240.928 242.516,240.928 C243.413,240.928 244.309,240.929 245.207,240.929 C246.135,240.929 247.06,240.935 247.987,240.935 C248.55,240.935 249.112,240.933 249.675,240.928 C250.366,240.92 251.231,240.928 251.922,240.928 C252.663,240.926 253.413,240.928 254.083,240.935 C254.136,240.935 254.285,240.928 254.465,240.928 C254.682,240.928 254.942,240.937 255.137,240.985 C255.473,241.066 255.484,241.254 255.312,241.447 C254.61,242.243 253.799,243.032 253.39,244.099 C253.195,244.61 253.116,245.102 253.116,245.633 C253.116,246.508 253.332,247.486 253.593,248.818 C253.935,250.563 254.191,252.105 254.498,253.638 C254.771,255.005 255.152,256.335 255.489,258.044 C256.069,260.981 256.68,264.192 256.731,264.444 C256.998,265.762 257.247,266.997 257.519,268.292 C257.596,268.656 257.67,269.02 257.745,269.386 L257.852,269.916 C257.953,270.403 258.057,270.595 258.15,270.595 C258.243,270.595 258.327,270.41 258.39,270.138 C258.464,269.821 258.536,269.504 258.61,269.187 C258.665,268.95 258.721,268.713 258.775,268.476 C259.08,267.181 259.39,265.671 259.717,264.359 C260.152,262.608 260.687,260.296 261.198,258.096 C261.524,256.694 261.891,255.442 262.215,253.94 C262.577,252.261 262.979,250.506 263.309,248.818 C263.55,247.594 263.875,246.624 263.875,245.635 C263.875,245.133 263.791,244.626 263.571,244.078 C263.148,243.027 262.356,242.236 261.66,241.446 C261.489,241.254 261.501,241.065 261.838,240.984 C262.194,240.898 262.774,240.935 262.891,240.933 C263.619,240.927 265.675,240.939 266.456,240.944 C268.008,240.953 269.56,240.921 271.112,240.934 C271.165,240.934 271.314,240.927 271.495,240.927 C271.711,240.927 271.971,240.936 272.164,240.984 C272.501,241.065 272.513,241.254 272.342,241.446 C271.66,242.22 270.849,242.904 270.154,243.901 C269.155,245.337 269.099,246.091 268.049,250.259 C267.524,252.287 267.251,253.388 266.851,254.933 C266.461,256.436 266.164,257.933 265.792,259.41 C265.722,259.689 264.972,262.894 264.075,266.13 C263.173,269.388 262.427,272.086 261.8,275.005 C261.732,275.32 261.062,278.413 260.531,280.864 C260.447,281.256 260.101,281.539 259.702,281.534 L259.699,281.536" id="Fill-17" fill="#21221C"></path>
                <path d="M285.197,281.557 C285.055,281.557 283.351,281.551 281.709,281.545 C281.506,281.547 281.304,281.549 281.1,281.552 C279.801,281.572 279.195,281.53 278.233,281.53 C277.414,281.53 277.079,281.437 277.079,281.203 C277.079,281.014 277.296,280.734 277.648,280.336 C278.66,279.192 279.385,277.884 279.558,276.16 C279.732,274.422 279.768,272.93 279.794,271.088 C279.803,270.409 279.807,269.744 279.807,269.085 C279.807,267.204 279.778,265.37 279.778,263.418 C279.778,262.218 279.789,260.972 279.822,259.644 C279.845,258.772 279.851,258.053 279.851,257.428 C279.851,255.846 279.802,254.845 279.802,253.416 C279.802,251.177 279.766,248.817 279.707,246.604 C279.655,244.703 278.516,242.784 277.282,241.467 C277.099,241.273 277.111,241.086 277.47,241.004 C277.677,240.957 277.954,240.946 278.184,240.946 C279.377,240.946 280.655,240.965 281.933,240.982 C282.325,240.988 282.718,240.988 283.111,240.988 C284.136,240.988 284.935,240.955 285.98,240.955 C288.487,240.955 291.13,241.014 293.572,241.014 C295.858,241.014 298.17,240.965 300.471,240.963 C300.807,240.962 301.143,240.978 301.48,240.978 C301.517,240.978 301.556,240.977 301.595,240.977 C301.76,240.977 301.928,240.995 301.992,241.184 C302.025,241.281 302.026,241.538 302.026,241.714 C302.026,242.554 302.004,243.391 302.004,244.229 C302.004,245.502 302.047,246.791 302.035,248.005 C302.035,248.058 302.042,248.211 302.042,248.396 C302.042,248.617 302.032,248.885 301.987,249.084 C301.909,249.428 301.727,249.443 301.542,249.269 C300.268,248.094 298.402,247.011 296.539,246.976 C294.985,246.948 293.348,246.928 291.724,246.928 C291.089,246.928 290.455,246.932 289.83,246.938 C289.218,246.944 288.683,246.941 288.151,246.935 C287.871,246.932 287.616,247.129 287.61,247.409 C287.603,247.761 287.595,248.111 287.582,248.463 C287.553,249.271 287.543,250.081 287.543,250.89 C287.543,253.123 287.623,255.358 287.623,257.588 C287.623,257.862 287.832,258.096 288.106,258.096 C288.53,258.095 288.995,258.092 289.559,258.088 C290.599,258.088 291.641,258.088 292.682,258.089 C293.761,258.089 294.84,258.094 295.918,258.1 C296.07,258.101 296.24,258.086 296.381,258.142 C296.576,258.22 296.589,258.427 296.597,258.583 C296.611,258.903 296.595,259.227 296.588,259.548 C296.572,260.2 296.559,260.851 296.57,261.505 C296.577,261.95 296.589,262.395 296.595,262.842 C296.596,262.955 296.598,263.069 296.598,263.182 C296.598,263.244 296.611,263.329 296.611,263.405 C296.611,263.649 296.412,263.665 296.24,263.665 C295.948,263.665 295.657,263.676 295.367,263.676 C293.801,263.675 292.251,263.756 290.686,263.707 C289.847,263.679 289.007,263.675 288.168,263.676 C287.883,263.676 287.646,263.9 287.646,264.185 C287.645,265.479 287.581,266.774 287.581,268.066 C287.581,269.662 287.588,270.681 287.602,272.647 C287.602,273.412 287.602,274.176 287.602,274.941 C287.602,275.223 287.811,275.471 288.094,275.471 C289.639,275.481 291.232,275.511 292.832,275.511 C294.439,275.511 295.673,275.386 297.211,275.232 C298.934,275.058 300.243,274.334 301.388,273.321 C301.785,272.969 302.083,272.753 302.282,272.753 C302.484,272.753 302.584,272.975 302.584,273.505 C302.584,274.791 302.575,275.402 302.575,277.064 C302.575,277.784 302.618,278.49 302.625,279.22 C302.626,279.339 302.626,279.458 302.626,279.576 C302.626,280.037 302.617,280.497 302.589,280.953 C302.576,281.149 302.518,281.353 302.322,281.44 C302.142,281.52 301.889,281.542 301.696,281.543 C300.308,281.553 299.016,281.556 297.622,281.556 C296.329,281.556 294.987,281.515 293.696,281.515 C291.73,281.502 290.712,281.495 289.113,281.495 C288.451,281.495 287.789,281.511 287.127,281.528 C287.099,281.531 287.07,281.537 287.042,281.538 C286.766,281.555 286.488,281.554 286.21,281.549 C285.873,281.555 285.537,281.559 285.201,281.559 L285.197,281.557" id="Fill-18" fill="#21221C"></path>
            </g>
        </g>
    </g>
</svg>